<svg xmlns="http://www.w3.org/2000/svg" viewBox="0 0 600 600"><defs><linearGradient id="b" x2="0" y2="1"><stop stop-color="#d9d2ae"/><stop offset="1" stop-color="#687b60"/></linearGradient><linearGradient id="c" x2="0" y2="1"><stop stop-color="#a97448"/><stop offset="1" stop-color="#533628"/></linearGradient></defs><rect width="600" height="600" fill="url(#b)"/><circle cx="84" cy="93" r="74" fill="#f1dfb8" opacity=".55"/><path d="M0 480 90 300l85 138 91-202 111 190 92-124 131 199v99H0Z" fill="#345047"/><path d="M100 600c9-162 72-244 200-244s194 82 200 244Z" fill="#155149"/><path d="M154 227c0-119 63-180 146-180s146 61 146 180v130c0 118-71 167-146 167s-146-49-146-167Z" fill="url(#c)"/><path d="M156 202c9-105 61-157 145-157 85 0 135 52 144 157l-45-41-29 37-70-45-77 53-28-32Z" fill="#704832"/><ellipse cx="225" cy="260" rx="52" ry="37" fill="#eee3c7"/><ellipse cx="370" cy="260" rx="52" ry="37" fill="#eee3c7"/><ellipse cx="229" cy="264" rx="12" ry="25" fill="#171412"/><ellipse cx="366" cy="264" rx="12" ry="25" fill="#171412"/><rect x="158" y="222" width="129" height="73" rx="22" fill="#263e35" stroke="#e5c18b" stroke-width="13"/><rect x="311" y="222" width="129" height="73" rx="22" fill="#263e35" stroke="#e5c18b" stroke-width="13"/><path d="M287 244h25" stroke="#e5c18b" stroke-width="14"/><ellipse cx="300" cy="356" rx="104" ry="67" fill="#be9064"/><path d="M260 382q40 28 80 0" fill="none" stroke="#54392d" stroke-width="9" stroke-linecap="round"/><path d="m233 413 68-18 66 18-23 84-89 3Z" fill="#e4c99a"/><path d="m100 600 32-157 74 26 94 36 96-35 75-27 31 157Z" fill="#12594d"/><path d="m244 480 56 22 54-22-20 120h-70Z" fill="#d49a50"/></svg>
